<?xml version="1.0" encoding="UTF-8"?><svg xmlns="http://www.w3.org/2000/svg" viewBox="0 0 693.41 693.41"><g id="a"/><g id="b"><g id="c"><polygon points="693.41 0 693.41 693.41 656.91 693.41 656.91 620.42 620.42 620.42 620.42 583.93 583.92 583.93 583.92 510.94 510.93 510.94 510.93 474.44 437.94 474.44 437.94 437.94 364.95 437.94 364.95 401.45 218.97 401.45 218.97 364.95 0 364.95 0 328.46 218.97 328.46 218.97 291.96 364.95 291.96 364.95 255.47 437.94 255.47 437.94 218.97 510.93 218.97 510.93 182.48 583.92 182.48 583.92 109.49 620.42 109.49 620.42 72.99 656.91 72.99 656.91 0 693.41 0"/></g></g></svg>