<?xml version="1.0" encoding="utf-8"?>
<!-- Generator: Adobe Illustrator 26.3.1, SVG Export Plug-In . SVG Version: 6.00 Build 0)  -->
<svg version="1.1" id="Layer_1" xmlns="http://www.w3.org/2000/svg" xmlns:xlink="http://www.w3.org/1999/xlink" x="0px" y="0px"
	 viewBox="0 0 693.4 693.4" style="enable-background:new 0 0 693.4 693.4;" xml:space="preserve">
<g id="a">
</g>
<g id="b">
	<g id="c">
		<polygon points="0,0 693.4,0 693.4,36.5 620.4,36.5 620.4,73 583.9,73 583.9,109.5 510.9,109.5 510.9,182.5 474.4,182.5 
			474.4,255.5 437.9,255.5 437.9,328.5 401.4,328.5 401.4,474.4 364.9,474.4 364.9,693.4 328.5,693.4 328.5,474.4 292,474.4 
			292,328.5 255.5,328.5 255.5,255.5 219,255.5 219,182.5 182.5,182.5 182.5,109.5 109.5,109.5 109.5,73 73,73 73,36.5 0,36.5 		"/>
	</g>
</g>
</svg>
