<?xml version="1.0" encoding="UTF-8"?><svg xmlns="http://www.w3.org/2000/svg" viewBox="0 0 516.12 516.12"><g id="a"/><g id="b"><g id="c"><polygon points="438.7 412.89 516.12 490.31 490.32 516.12 412.9 438.7 387.09 464.5 335.48 412.89 309.67 438.7 283.87 412.89 258.06 438.7 232.26 412.89 206.45 438.7 180.64 412.89 129.03 464.5 103.23 438.7 25.81 516.12 0 490.31 77.42 412.89 51.61 387.09 103.23 335.47 77.42 309.67 103.23 283.86 77.42 258.06 103.23 232.25 77.42 206.44 103.22 180.64 51.61 129.03 77.42 103.22 0 25.8 25.81 0 103.23 77.41 129.03 51.61 180.64 103.22 206.45 77.41 232.26 103.22 258.06 77.41 283.87 103.22 309.67 77.41 335.48 103.22 387.09 51.61 412.9 77.41 490.32 0 516.12 25.8 438.7 103.22 464.51 129.03 412.9 180.64 438.7 206.44 412.9 232.25 438.7 258.06 412.9 283.86 438.7 309.67 412.9 335.47 464.51 387.09 438.7 412.89"/></g></g></svg>