<?xml version="1.0" encoding="UTF-8"?><svg id="Layer_2" xmlns="http://www.w3.org/2000/svg" viewBox="0 0 693.41 693.41"><defs><style>.cls-1{fill:#0b0b0b;}</style></defs><g id="Back_Long"><polygon class="cls-1" points="0 693.41 0 0 36.5 0 36.5 72.99 72.99 72.99 72.99 109.48 109.49 109.48 109.49 182.47 182.48 182.47 182.48 218.97 255.47 218.97 255.47 255.47 328.46 255.47 328.46 291.96 474.44 291.96 474.44 328.46 693.41 328.46 693.41 364.95 474.44 364.95 474.44 401.45 328.46 401.45 328.46 437.94 255.47 437.94 255.47 474.44 182.48 474.44 182.48 510.93 109.49 510.93 109.49 583.92 72.99 583.92 72.99 620.42 36.5 620.42 36.5 693.41 0 693.41"/></g></svg>