<?xml version="1.0" encoding="utf-8"?>
<!-- Generator: Adobe Illustrator 26.3.1, SVG Export Plug-In . SVG Version: 6.00 Build 0)  -->
<svg version="1.1" id="Layer_1" xmlns="http://www.w3.org/2000/svg" xmlns:xlink="http://www.w3.org/1999/xlink" x="0px" y="0px"
	 viewBox="0 0 693.4 693.4" style="enable-background:new 0 0 693.4 693.4;" xml:space="preserve">
<g id="a">
</g>
<g id="b">
	<g id="c">
		<polygon points="693.4,693.4 0,693.4 0,656.9 73,656.9 73,620.4 109.5,620.4 109.5,583.9 182.5,583.9 182.5,510.9 219,510.9 
			219,437.9 255.5,437.9 255.5,365 292,365 292,219 328.5,219 328.5,0 364.9,0 364.9,219 401.4,219 401.4,365 437.9,365 
			437.9,437.9 474.4,437.9 474.4,510.9 510.9,510.9 510.9,583.9 583.9,583.9 583.9,620.4 620.4,620.4 620.4,656.9 693.4,656.9 		"/>
	</g>
</g>
</svg>
