<?xml version="1.0" encoding="UTF-8"?><svg xmlns="http://www.w3.org/2000/svg" viewBox="0 0 693.39 693.39"><g id="a"/><g id="b"><g id="c"><path d="M656.89,218.96v-72.99h-36.49v72.99h-36.5v-72.99h36.5v-36.49h-36.5v-36.5h-36.5v36.5h-72.99v-36.5h72.99V36.49h-72.99V0H218.95V36.49h-72.99v36.49h72.99v36.5h-72.99v-36.5h-36.5v36.5h-36.49v36.49h36.49v72.99h-36.49v-72.99H36.47v72.99H0v255.47H36.47v72.99h36.5v-72.99h36.49v72.99h-36.49v36.5h36.49v36.49h36.5v-36.49h72.99v36.49h-72.99v36.5h72.99v36.48h255.46v-36.48h72.99v-36.5h-72.99v-36.49h72.99v36.49h36.5v-36.49h36.5v-36.5h-36.5v-72.99h36.5v72.99h36.49v-72.99h36.5V218.96h-36.5ZM109.46,437.93H36.48v-72.98H109.46v72.98Zm0-109.48H36.48v-72.99H109.46v72.99Zm109.49,218.97h-72.99v-72.99h72.99v72.99Zm0-109.49h-72.99v-72.98h72.99v72.98Zm0-109.48h-72.99v-72.99h72.99v72.99Zm0-109.49h-72.99v-72.99h72.99v72.99Zm109.48,437.95h-72.99v-72.99h72.99v72.99Zm0-109.49h-72.99v-72.99h72.99v72.99Zm0-109.49h-72.99v-72.98h72.99v72.98Zm0-109.48h-72.99v-72.99h72.99v72.99Zm0-109.49h-72.99v-72.99h72.99v72.99Zm0-109.48h-72.99V36.49h72.99V109.48Zm109.49,547.43h-72.99v-72.99h72.99v72.99Zm0-109.49h-72.99v-72.99h72.99v72.99Zm0-109.49h-72.99v-72.98h72.99v72.98Zm0-109.48h-72.99v-72.99h72.99v72.99Zm0-109.49h-72.99v-72.99h72.99v72.99Zm0-109.48h-72.99V36.49h72.99V109.48Zm109.48,437.94h-72.99v-72.99h72.99v72.99Zm0-109.49h-72.99v-72.98h72.99v72.98Zm0-109.48h-72.99v-72.99h72.99v72.99Zm0-109.49h-72.99v-72.99h72.99v72.99Zm109.49,218.97h-72.99v-72.98h72.99v72.98Zm0-109.48h-72.99v-72.99h72.99v72.99Z"/></g></g></svg>